# Blender v2.79 (sub 0) OBJ File: 'Dagger_Blend.blend'
# www.blender.org
mtllib Dagger_Obj.mtl
o Dagger_Cylinder
v 0.066817 -0.475428 0.066817
v 0.093238 0.055861 0.093238
v -0.000000 -0.475428 0.094494
v -0.000000 0.055861 0.131858
v -0.066817 -0.475428 0.066817
v -0.093238 0.055861 0.093238
v 0.149166 0.055861 0.149166
v -0.000000 0.055861 0.210953
v -0.149167 0.055861 0.149166
v 0.149166 0.170175 0.149166
v -0.000000 0.170175 0.210953
v -0.149167 0.170175 0.149166
v 0.085935 -0.496213 0.085935
v -0.000000 -0.496213 0.121530
v -0.085935 -0.496213 0.085935
v 0.074429 -0.519828 0.074429
v -0.000000 -0.519828 0.105259
v -0.074429 -0.519828 0.074429
v 0.000000 0.170175 0.050213
v 0.000000 0.596914 0.046954
v 0.000000 1.088686 0.030107
v 0.080682 -0.068741 0.080682
v -0.000000 -0.068741 0.114102
v -0.080682 -0.068741 0.080682
v 0.094494 -0.475428 0.000000
v 0.131858 0.055861 0.000000
v 0.066817 -0.475428 -0.066817
v 0.093238 0.055861 -0.093238
v -0.000000 -0.475428 -0.094494
v -0.000000 0.055861 -0.131858
v -0.066817 -0.475428 -0.066817
v -0.093238 0.055861 -0.093238
v -0.094494 -0.475428 0.000000
v -0.131858 0.055861 0.000000
v 0.210953 0.055861 0.000000
v 0.149166 0.055861 -0.149166
v -0.000000 0.055861 -0.210953
v -0.149167 0.055861 -0.149166
v -0.210953 0.055861 0.000000
v 0.210953 0.170175 0.000000
v 0.149166 0.170175 -0.149166
v -0.000000 0.170175 -0.210953
v -0.149167 0.170175 -0.149166
v -0.210953 0.170175 0.000000
v 0.121530 -0.496213 0.000000
v 0.085935 -0.496213 -0.085935
v -0.000000 -0.496213 -0.121530
v -0.085935 -0.496213 -0.085935
v -0.121530 -0.496213 0.000000
v 0.131858 0.170175 0.000000
v 0.105259 -0.519828 0.000000
v 0.074429 -0.519828 -0.074429
v -0.000000 -0.519828 -0.105259
v -0.074429 -0.519828 -0.074429
v -0.105259 -0.519828 0.000000
v -0.131858 0.170175 0.000000
v 0.000000 0.170175 -0.050213
v -0.131858 0.596914 0.000000
v 0.131858 0.596914 0.000000
v 0.000000 0.596914 -0.046954
v -0.096975 1.088686 0.000000
v 0.096975 1.088686 0.000000
v 0.000000 1.088686 -0.030107
v 0.000000 1.616499 0.000000
v 0.000000 -0.519828 0.000000
v 0.114102 -0.068741 0.000000
v 0.080682 -0.068741 -0.080682
v -0.000000 -0.068741 -0.114102
v -0.080682 -0.068741 -0.080682
v -0.114102 -0.068741 0.000000
vt 0.306133 0.403798
vt 0.306133 0.518560
vt 0.384961 0.518560
vt 0.384961 0.403798
vt 0.463813 0.518560
vt 0.463813 0.403798
vt 0.542665 0.518560
vt 0.542665 0.403798
vt 0.621493 0.518560
vt 0.621493 0.403798
vt 0.374431 0.974390
vt 0.482105 0.974390
vt 0.482105 0.928901
vt 0.374431 0.928901
vt 0.932953 0.768500
vt 0.932953 0.875716
vt 0.982581 0.875716
vt 0.982581 0.768500
vt 0.932953 0.458370
vt 0.932953 0.565585
vt 0.982581 0.565585
vt 0.982581 0.458370
vt 0.932953 0.667043
vt 0.982581 0.667043
vt 0.797665 0.527604
vt 0.797665 0.657882
vt 0.912885 0.657882
vt 0.912885 0.527604
vt 0.797665 0.788161
vt 0.797665 0.925832
vt 0.912885 0.925832
vt 0.912885 0.788161
vt 0.797665 0.389932
vt 0.912885 0.389932
vt 0.589778 0.974390
vt 0.589778 0.928901
vt 0.256274 0.974390
vt 0.256274 0.928901
vt 0.707936 0.974390
vt 0.707936 0.928901
vt 0.707936 0.885369
vt 0.589778 0.885369
vt 0.482105 0.885369
vt 0.374431 0.885369
vt 0.256274 0.885369
vt 0.665897 0.637998
vt 0.490464 0.754377
vt 0.645541 0.813431
vt 0.738564 0.813431
vt 0.035283 0.025754
vt 0.142089 0.025754
vt 0.142089 0.308560
vt 0.035283 0.308560
vt 0.248895 0.025754
vt 0.248895 0.308560
vt 0.490464 0.565331
vt 0.315031 0.637998
vt 0.242364 0.813431
vt 0.335387 0.813431
vt 0.220640 0.634464
vt 0.142089 0.634464
vt 0.063538 0.634464
vt 0.142089 0.984254
vt 0.890311 0.273112
vt 0.794102 0.312963
vt 0.697892 0.273112
vt 0.794102 0.176902
vt 0.658041 0.176902
vt 0.697892 0.080692
vt 0.542665 0.026282
vt 0.621493 0.026282
vt 0.463813 0.026282
vt 0.384961 0.026282
vt 0.306133 0.026282
vt 0.621493 0.403798
vt 0.542665 0.403798
vt 0.542665 0.518560
vt 0.621493 0.518560
vt 0.463813 0.403798
vt 0.463813 0.518560
vt 0.384961 0.403798
vt 0.384961 0.518560
vt 0.306133 0.403798
vt 0.306133 0.518560
vt 0.589778 0.974390
vt 0.589778 0.928901
vt 0.482105 0.928901
vt 0.482105 0.974390
vt 0.932953 0.565585
vt 0.982581 0.565585
vt 0.982581 0.458370
vt 0.932953 0.458370
vt 0.932953 0.875716
vt 0.982581 0.875716
vt 0.982581 0.768500
vt 0.932953 0.768500
vt 0.932953 0.667043
vt 0.982581 0.667043
vt 0.797665 0.788161
vt 0.912885 0.788161
vt 0.912885 0.657882
vt 0.797665 0.657882
vt 0.797665 0.527604
vt 0.912885 0.527604
vt 0.912885 0.389932
vt 0.797665 0.389932
vt 0.797665 0.925832
vt 0.912885 0.925832
vt 0.374431 0.928901
vt 0.374431 0.974390
vt 0.707936 0.974390
vt 0.707936 0.928901
vt 0.256274 0.928901
vt 0.256274 0.974390
vt 0.374431 0.885369
vt 0.256274 0.885369
vt 0.589778 0.885369
vt 0.482105 0.885369
vt 0.707936 0.885369
vt 0.315031 0.637998
vt 0.242364 0.813431
vt 0.335387 0.813431
vt 0.490464 0.754377
vt 0.142089 0.308560
vt 0.142089 0.025754
vt 0.490464 0.565331
vt 0.665897 0.637998
vt 0.645541 0.813431
vt 0.738564 0.813431
vt 0.142089 0.634464
vt 0.890311 0.080692
vt 0.930163 0.176902
vt 0.794102 0.040841
vt 0.384961 0.026282
vt 0.306133 0.026282
vt 0.463813 0.026282
vt 0.542665 0.026282
vt 0.621493 0.026282
vn 0.9954 -0.0958 0.0000
vn 0.9900 -0.1411 0.0000
vn 0.7000 -0.1411 0.7000
vn 0.7039 -0.0958 0.7039
vn -0.0000 -0.1411 0.9900
vn -0.0000 -0.0958 0.9954
vn -0.7000 -0.1411 0.7000
vn -0.7039 -0.0958 0.7039
vn -0.9900 -0.1411 0.0000
vn -0.9954 -0.0958 0.0000
vn 0.4310 0.7928 0.4310
vn -0.0000 0.7928 0.6095
vn -0.0000 0.1346 0.9909
vn 0.7007 0.1346 0.7007
vn 0.0000 -1.0000 -0.0000
vn -0.7071 0.0000 0.7071
vn -0.0000 0.0000 1.0000
vn 0.7071 0.0000 0.7071
vn 1.0000 0.0000 0.0000
vn -1.0000 0.0000 0.0000
vn -0.4310 0.7928 0.4310
vn -0.7007 0.1346 0.7007
vn 0.6095 0.7928 0.0000
vn 0.9909 0.1346 0.0000
vn -0.6095 0.7928 0.0000
vn -0.9909 0.1346 0.0000
vn -0.8235 -0.5674 0.0000
vn -0.5823 -0.5674 0.5823
vn -0.0000 -0.5674 0.8235
vn 0.5823 -0.5674 0.5823
vn 0.8235 -0.5674 0.0000
vn 0.0000 1.0000 -0.0000
vn -0.3457 0.0036 0.9383
vn -0.3325 0.0155 0.9430
vn -0.3327 0.0153 0.9429
vn 0.3457 0.0036 0.9383
vn 0.3327 0.0153 0.9429
vn 0.3325 0.0155 0.9430
vn 0.3085 0.0399 0.9504
vn 0.3077 0.0409 0.9506
vn -0.3077 0.0409 0.9506
vn -0.3085 0.0399 0.9504
vn 0.2961 0.0544 0.9536
vn -0.2961 0.0544 0.9536
vn -0.7063 -0.0482 0.7063
vn -0.9988 -0.0482 0.0000
vn -0.0000 -0.0482 0.9988
vn 0.7063 -0.0482 0.7063
vn 0.9988 -0.0482 0.0000
vn 0.7039 -0.0958 -0.7039
vn 0.7000 -0.1411 -0.7000
vn -0.0000 -0.0958 -0.9954
vn -0.0000 -0.1411 -0.9900
vn -0.7039 -0.0958 -0.7039
vn -0.7000 -0.1411 -0.7000
vn 0.4310 0.7928 -0.4310
vn 0.7007 0.1346 -0.7007
vn -0.0000 0.1346 -0.9909
vn -0.0000 0.7928 -0.6095
vn -0.7071 0.0000 -0.7071
vn -0.0000 0.0000 -1.0000
vn 0.7071 0.0000 -0.7071
vn -0.7007 0.1346 -0.7007
vn -0.4310 0.7928 -0.4310
vn -0.5823 -0.5674 -0.5823
vn 0.5823 -0.5674 -0.5823
vn -0.0000 -0.5674 -0.8235
vn -0.3457 0.0036 -0.9383
vn -0.3327 0.0153 -0.9429
vn -0.3325 0.0155 -0.9430
vn 0.3457 0.0036 -0.9383
vn 0.3325 0.0155 -0.9430
vn 0.3327 0.0153 -0.9429
vn 0.3077 0.0409 -0.9506
vn 0.3085 0.0399 -0.9504
vn -0.3085 0.0399 -0.9504
vn -0.3077 0.0409 -0.9506
vn 0.2961 0.0544 -0.9536
vn -0.2961 0.0544 -0.9536
vn -0.7063 -0.0482 -0.7063
vn -0.0000 -0.0482 -0.9988
vn 0.7063 -0.0482 -0.7063
usemtl Material.001
s 1
f 66/1/1 26/2/2 2/3/3 22/4/4
f 22/4/4 2/3/3 4/5/5 23/6/6
f 23/6/6 4/5/5 6/7/7 24/8/8
f 24/8/8 6/7/7 34/9/9 70/10/10
f 1/11/11 3/12/12 14/13/13 13/14/14
f 2/15/15 26/16/15 35/17/15 7/18/15
f 34/19/15 6/20/15 9/21/15 39/22/15
f 4/23/15 2/15/15 7/18/15 8/24/15
f 6/20/15 4/23/15 8/24/15 9/21/15
f 9/25/16 8/26/17 11/27/17 12/28/16
f 7/29/18 35/30/19 40/31/19 10/32/18
f 39/33/20 9/25/16 12/28/16 44/34/20
f 8/26/17 7/29/18 10/32/18 11/27/17
f 3/12/12 5/35/21 15/36/22 14/13/13
f 25/37/23 1/11/11 13/14/14 45/38/24
f 5/35/21 33/39/25 49/40/26 15/36/22
f 15/36/22 49/40/26 55/41/27 18/42/28
f 13/14/14 14/13/13 17/43/29 16/44/30
f 14/13/13 15/36/22 18/42/28 17/43/29
f 45/38/24 13/14/14 16/44/30 51/45/31
f 12/46/32 19/47/32 56/48/32 44/49/32
f 56/50/33 19/51/33 20/52/34 58/53/35
f 19/51/36 50/54/36 59/55/37 20/52/38
f 11/56/32 10/57/32 19/47/32 12/46/32
f 10/57/32 40/58/32 50/59/32 19/47/32
f 20/52/38 59/55/37 62/60/39 21/61/40
f 58/53/35 20/52/34 21/61/41 61/62/42
f 21/61/40 62/60/39 64/63/43
f 61/62/42 21/61/41 64/63/44
f 51/64/15 16/65/15 17/66/15 65/67/15
f 18/68/15 55/69/15 65/67/15 17/66/15
f 5/70/45 24/8/8 70/10/10 33/71/46
f 3/72/47 23/6/6 24/8/8 5/70/45
f 1/73/48 22/4/4 23/6/6 3/72/47
f 25/74/49 66/1/1 22/4/4 1/73/48
f 66/75/1 67/76/50 28/77/51 26/78/2
f 67/76/50 68/79/52 30/80/53 28/77/51
f 68/79/52 69/81/54 32/82/55 30/80/53
f 69/81/54 70/83/10 34/84/9 32/82/55
f 27/85/56 46/86/57 47/87/58 29/88/59
f 28/89/15 36/90/15 35/91/15 26/92/15
f 34/93/15 39/94/15 38/95/15 32/96/15
f 30/97/15 37/98/15 36/90/15 28/89/15
f 32/96/15 38/95/15 37/98/15 30/97/15
f 38/99/60 43/100/60 42/101/61 37/102/61
f 36/103/62 41/104/62 40/105/19 35/106/19
f 39/107/20 44/108/20 43/100/60 38/99/60
f 37/102/61 42/101/61 41/104/62 36/103/62
f 29/88/59 47/87/58 48/109/63 31/110/64
f 25/111/23 45/112/24 46/86/57 27/85/56
f 31/110/64 48/109/63 49/113/26 33/114/25
f 48/109/63 54/115/65 55/116/27 49/113/26
f 46/86/57 52/117/66 53/118/67 47/87/58
f 47/87/58 53/118/67 54/115/65 48/109/63
f 45/112/24 51/119/31 52/117/66 46/86/57
f 43/120/32 44/121/32 56/122/32 57/123/32
f 56/50/68 58/53/69 60/124/70 57/125/68
f 57/125/71 60/124/72 59/55/73 50/54/71
f 42/126/32 43/120/32 57/123/32 41/127/32
f 41/127/32 57/123/32 50/128/32 40/129/32
f 60/124/72 63/130/74 62/60/75 59/55/73
f 58/53/69 61/62/76 63/130/77 60/124/70
f 63/130/74 64/63/78 62/60/75
f 61/62/76 64/63/79 63/130/77
f 51/64/15 65/67/15 53/131/15 52/132/15
f 54/133/15 53/131/15 65/67/15 55/69/15
f 31/134/80 33/135/46 70/83/10 69/81/54
f 29/136/81 31/134/80 69/81/54 68/79/52
f 27/137/82 29/136/81 68/79/52 67/76/50
f 25/138/49 27/137/82 67/76/50 66/75/1
